<svg width="400" height="400" xmlns="http://www.w3.org/2000/svg">
  <!-- Background -->
  <rect width="400" height="400" fill="#f3f4f6"/>
  
  <!-- Flower Icon -->
  <g transform="translate(200, 200)">
    <!-- Center -->
    <circle cx="0" cy="0" r="20" fill="#fbbf24"/>
    
    <!-- Petals -->
    <ellipse cx="0" cy="-45" rx="25" ry="35" fill="#ec4899" opacity="0.8"/>
    <ellipse cx="32" cy="-32" rx="25" ry="35" fill="#ec4899" opacity="0.8" transform="rotate(45 32 -32)"/>
    <ellipse cx="45" cy="0" rx="25" ry="35" fill="#ec4899" opacity="0.8" transform="rotate(90 45 0)"/>
    <ellipse cx="32" cy="32" rx="25" ry="35" fill="#ec4899" opacity="0.8" transform="rotate(135 32 32)"/>
    <ellipse cx="0" cy="45" rx="25" ry="35" fill="#ec4899" opacity="0.8" transform="rotate(180 0 45)"/>
    <ellipse cx="-32" cy="32" rx="25" ry="35" fill="#ec4899" opacity="0.8" transform="rotate(225 -32 32)"/>
    <ellipse cx="-45" cy="0" rx="25" ry="35" fill="#ec4899" opacity="0.8" transform="rotate(270 -45 0)"/>
    <ellipse cx="-32" cy="-32" rx="25" ry="35" fill="#ec4899" opacity="0.8" transform="rotate(315 -32 -32)"/>
  </g>
  
  <!-- Text -->
  <text x="200" y="330" font-family="Arial, sans-serif" font-size="18" fill="#6b7280" text-anchor="middle">
    No Image Available
  </text>
</svg>


